<svg width="13" height="13" viewBox="0 0 13 13" fill="none" xmlns="http://www.w3.org/2000/svg">
<path d="M1.67083 0.192211C1.41454 -0.0640704 0.99903 -0.0640704 0.742748 0.192211C0.486467 0.448493 0.486467 0.864007 0.742748 1.12029L5.84718 6.22472L0.742749 11.3291C0.486468 11.5854 0.486468 12.0009 0.742749 12.2572C0.999031 12.5135 1.41454 12.5135 1.67083 12.2572L6.77525 7.15279L11.8796 12.2571C12.1359 12.5134 12.5514 12.5134 12.8077 12.2571C13.064 12.0009 13.064 11.5853 12.8077 11.3291L7.70333 6.22472L12.8078 1.12029C13.064 0.864007 13.064 0.448493 12.8078 0.192211C12.5515 -0.0640704 12.136 -0.0640704 11.8797 0.192211L6.77525 5.29664L1.67083 0.192211Z" fill="#EC156B"/>
</svg>
