<svg width="28" height="12" viewBox="0 0 28 12" fill="none" xmlns="http://www.w3.org/2000/svg">
<path opacity="0.35" d="M1.48401 2.99992C1.48401 1.8033 2.45406 0.833252 3.65068 0.833252H22.0187C23.2153 0.833252 24.1853 1.8033 24.1853 2.99992V8.99992C24.1853 10.1965 23.2153 11.1666 22.0187 11.1666H3.65067C2.45405 11.1666 1.48401 10.1965 1.48401 8.99992V2.99992Z" stroke="black"/>
<path opacity="0.4" d="M25.7627 3.99988V7.99988C26.6297 7.6611 27.1935 6.87301 27.1935 5.99988C27.1935 5.12674 26.6297 4.33865 25.7627 3.99988Z" fill="black"/>
<path d="M3.13867 3.66659C3.13867 2.93021 3.73563 2.33325 4.47201 2.33325H21.1973C21.9337 2.33325 22.5307 2.93021 22.5307 3.66659V8.33325C22.5307 9.06963 21.9337 9.66659 21.1973 9.66659H4.47201C3.73563 9.66659 3.13867 9.06963 3.13867 8.33325V3.66659Z" fill="black"/>
</svg>
