<svg width="30" height="30" viewBox="0 0 30 30" fill="none" xmlns="http://www.w3.org/2000/svg">
<path d="M26.3501 0.627853C27.1741 4.59117 26.6444 8.12284 25.0944 8.92728C24.0545 9.45703 23.0146 9.22159 21.445 8.0836C20.0127 7.04372 19.1101 6.67093 17.9918 6.67093C16.9715 6.67093 15.4607 7.20069 15.2057 7.63233C14.9702 7.9855 14.3228 7.86778 13.636 7.35765C11.1246 5.43485 7.65182 5.55257 5.4151 7.63233C2.94293 9.92792 2.84482 13.283 5.17965 15.6178C7.436 17.8742 11.1835 18.09 13.7145 16.0887C14.4209 15.5197 14.4993 15.5001 14.4993 15.8533C14.4993 16.4419 12.8708 17.7761 11.6936 18.1685C11.0658 18.3843 10.1044 18.502 9.20183 18.502C7.18093 18.4824 5.78788 17.933 4.31635 16.5596L3.15875 15.5001L2.45242 16.3242C1.37329 17.5799 0.922026 18.9925 0.804303 21.347C0.706201 23.5641 0.863165 24.447 1.7657 26.6837C2.70748 29.0578 2.80558 29.1363 4.72838 29.1363H6.35688V26.978C6.3765 23.623 6.23915 23.8584 7.74992 24.6236C9.86893 25.7027 12.5177 25.9382 14.3031 25.2318C14.5582 25.1337 14.5974 25.428 14.6171 27.1939C14.6367 28.8224 14.7152 29.3325 14.9702 29.5876C15.3626 29.9996 17.619 30.1369 18.7373 29.8426L19.5614 29.6268L19.3063 28.3907C18.8747 26.3306 18.757 23.8976 19.012 22.2299C19.4633 19.2672 20.3855 17.9134 24.2507 14.578C25.7418 13.283 27.2918 11.7722 27.7039 11.1836C28.8222 9.57475 29.3127 7.76968 29.2931 5.39561C29.2539 3.33547 28.6456 0.451269 28.1748 0.156963C28.057 0.0784817 27.5469 0 27.076 0H26.2323L26.3501 0.627853ZM20.0912 9.61399C20.6013 10.183 20.562 11.164 20.0127 11.6153C19.3848 12.1058 18.6981 12.0665 18.1291 11.4779C17.5405 10.8893 17.5209 10.4184 18.0506 9.73172C18.5608 9.08424 19.5614 9.02538 20.0912 9.61399Z" fill="#EC156B"/>
</svg>
