<svg width="19" height="12" viewBox="0 0 19 12" fill="none" xmlns="http://www.w3.org/2000/svg">
<path fill-rule="evenodd" clip-rule="evenodd" d="M17.6142 0.666748H16.5368C15.9418 0.666748 15.4595 1.11446 15.4595 1.66675V10.3334C15.4595 10.8857 15.9418 11.3334 16.5368 11.3334H17.6142C18.2092 11.3334 18.6915 10.8857 18.6915 10.3334V1.66675C18.6915 1.11446 18.2092 0.666748 17.6142 0.666748ZM11.5093 3.00008H12.5866C13.1816 3.00008 13.664 3.4478 13.664 4.00008V10.3334C13.664 10.8857 13.1816 11.3334 12.5866 11.3334H11.5093C10.9143 11.3334 10.4319 10.8857 10.4319 10.3334V4.00008C10.4319 3.4478 10.9143 3.00008 11.5093 3.00008ZM7.55907 5.33341H6.48173C5.88673 5.33341 5.40439 5.78113 5.40439 6.33341V10.3334C5.40439 10.8857 5.88673 11.3334 6.48173 11.3334H7.55907C8.15407 11.3334 8.63641 10.8857 8.63641 10.3334V6.33341C8.63641 5.78113 8.15407 5.33341 7.55907 5.33341ZM2.53151 7.33341H1.45417C0.859173 7.33341 0.376831 7.78113 0.376831 8.33341V10.3334C0.376831 10.8857 0.859173 11.3334 1.45417 11.3334H2.53151C3.12651 11.3334 3.60886 10.8857 3.60886 10.3334V8.33341C3.60886 7.78113 3.12651 7.33341 2.53151 7.33341Z" fill="black"/>
</svg>
