<svg width="26" height="26" viewBox="0 0 26 26" fill="none" xmlns="http://www.w3.org/2000/svg">
<path d="M16.5128 18.0434L15.5325 19.0239C15.0021 19.555 14.2116 19.7296 13.5058 19.471C12.3686 19.0528 11.0472 18.0659 9.4923 16.5106C7.9357 14.9538 6.94947 13.6328 6.53376 12.4963C6.27495 11.7921 6.44849 11.0016 6.97958 10.4694L7.96109 9.48908C9.41681 8.0331 9.54893 5.75531 8.2843 4.25534L7.13271 2.88641C6.17145 1.74295 4.42263 1.62626 3.22563 2.64412C2.75911 3.04622 2.40839 3.56562 2.2104 4.14663C2.12505 4.39891 2.06993 4.66042 2.04135 4.96898C1.49901 8.99521 3.47917 13.306 8.08789 17.9155C12.6964 22.5249 17.005 24.5043 21.0695 23.9575C21.9557 23.8729 22.7751 23.4498 23.3526 22.7816C24.3747 21.5815 24.2579 19.831 23.1147 18.8688L21.747 17.7165C20.2454 16.4539 17.9687 16.5873 16.5128 18.0434ZM15.1341 16.6647C17.2963 14.502 20.7156 14.3017 23.0025 16.2245L24.3705 17.3771C26.3518 19.0447 26.5511 22.0331 24.8324 24.0514C23.922 25.1047 22.6405 25.7663 21.2923 25.8943C16.574 26.5299 11.7086 24.2947 6.70914 19.2943C1.70947 14.2937 -0.526431 9.42623 0.104186 4.75192C0.141662 4.33302 0.228702 3.92005 0.36417 3.51964C0.674834 2.60796 1.22325 1.79578 1.95769 1.16279C3.97217 -0.550245 6.95847 -0.350984 8.6249 1.63131L9.7756 2.99916C11.701 5.28288 11.5025 8.7048 9.33938 10.8683L8.36898 11.8376C8.67074 12.6507 9.50467 13.7652 10.871 15.1319C12.2357 16.4968 13.3506 17.3314 14.1636 17.6353L15.1341 16.6647Z" fill="white"/>
</svg>
