<svg width="25" height="25" viewBox="0 0 25 25" fill="none" xmlns="http://www.w3.org/2000/svg">
<circle cx="9.53749" cy="6.91665" r="5.38234" stroke="white" stroke-width="1.5" stroke-linecap="round" stroke-linejoin="round"/>
<path fill-rule="evenodd" clip-rule="evenodd" d="M1.00002 19.7848C0.998572 19.4064 1.08319 19.0327 1.24748 18.6918C1.76303 17.6607 3.21688 17.1142 4.42327 16.8668C5.29331 16.6811 6.17537 16.5571 7.06288 16.4956C8.70604 16.3512 10.3587 16.3512 12.0018 16.4956C12.8893 16.5578 13.7713 16.6818 14.6415 16.8668C15.8478 17.1142 17.3017 17.6092 17.8172 18.6918C18.1476 19.3866 18.1476 20.1932 17.8172 20.888C17.3017 21.9707 15.8478 22.4656 14.6415 22.7028C13.7724 22.8961 12.8901 23.0237 12.0018 23.0843C10.6644 23.1977 9.32081 23.2183 7.98056 23.1462C7.67123 23.1462 7.37221 23.1462 7.06288 23.0843C6.17799 23.0244 5.29899 22.8969 4.43358 22.7028C3.21688 22.4656 1.77334 21.9707 1.24748 20.888C1.08403 20.5432 0.999495 20.1664 1.00002 19.7848Z" stroke="white" stroke-width="1.5" stroke-linecap="round" stroke-linejoin="round"/>
<path fill-rule="evenodd" clip-rule="evenodd" d="M12.5511 21.0838C11.9989 21.0838 11.5511 20.6361 11.5511 20.0838V15.8705C11.5511 15.3183 11.9989 14.8705 12.5511 14.8705H14.11C14.6623 14.8705 15.11 14.4228 15.11 13.8705V12.4887C15.11 11.9364 15.5577 11.4887 16.11 11.4887H20.4412C20.9935 11.4887 21.4412 11.9364 21.4412 12.4887V13.8705C21.4412 14.4228 21.8889 14.8705 22.4412 14.8705H24C24.5523 14.8705 25 15.3183 25 15.8705V20.0838C25 20.6361 24.5523 21.0838 24 21.0838H22.4412C21.8889 21.0838 21.4412 21.5315 21.4412 22.0838V23.4657C21.4412 24.0179 20.9935 24.4657 20.4412 24.4657H16.11C15.5577 24.4657 15.11 24.0179 15.11 23.4657V22.0838C15.11 21.5315 14.6623 21.0838 14.11 21.0838H12.5511ZM17.5678 21.3001C17.5678 21.691 17.8847 22.0079 18.2756 22.0079C18.6665 22.0079 18.9834 21.691 18.9834 21.3001V19.626C18.9834 19.0737 19.4311 18.626 19.9834 18.626H21.8934C22.2518 18.626 22.5423 18.3355 22.5423 17.9772C22.5423 17.6188 22.2518 17.3283 21.8934 17.3283H19.9834C19.4311 17.3283 18.9834 16.8806 18.9834 16.3283V14.6543C18.9834 14.2633 18.6665 13.9464 18.2756 13.9464C17.8847 13.9464 17.5678 14.2633 17.5678 14.6543V16.3283C17.5678 16.8806 17.12 17.3283 16.5678 17.3283H14.6578C14.2994 17.3283 14.0089 17.6188 14.0089 17.9772C14.0089 18.3355 14.2994 18.626 14.6578 18.626H16.5678C17.12 18.626 17.5678 19.0737 17.5678 19.626V21.3001Z" fill="#00538A"/>
<path d="M14.0088 18.626V17.3283H17.5676V13.9464H18.9833V17.3283H22.5422V18.626H18.9833V22.0079H17.5676V18.626H14.0088Z" fill="white"/>
</svg>
