<svg width="17" height="12" viewBox="0 0 17 12" fill="none" xmlns="http://www.w3.org/2000/svg">
<path fill-rule="evenodd" clip-rule="evenodd" d="M8.33454 2.60802C10.7218 2.60811 13.0178 3.45955 14.7479 4.98635C14.8782 5.10422 15.0864 5.10274 15.2148 4.98301L16.4602 3.81635C16.5251 3.75563 16.5614 3.67337 16.5608 3.58779C16.5603 3.50221 16.523 3.42036 16.4573 3.36035C11.9162 -0.679198 4.75215 -0.679198 0.211079 3.36035C0.145298 3.42032 0.107975 3.50214 0.107368 3.58772C0.106762 3.67331 0.142922 3.75558 0.207847 3.81635L1.4536 4.98301C1.58184 5.10292 1.79024 5.1044 1.92045 4.98635C3.65081 3.45945 5.94705 2.60801 8.33454 2.60802ZM8.33454 6.40368C9.64618 6.40361 10.911 6.85614 11.8833 7.67335C12.0148 7.78933 12.2219 7.78681 12.3501 7.66768L13.5941 6.50102C13.6596 6.43982 13.6959 6.3568 13.695 6.27054C13.694 6.18427 13.6559 6.10196 13.589 6.04202C10.6283 3.48563 6.04327 3.48563 3.08255 6.04202C3.01567 6.10196 2.97752 6.18431 2.97664 6.27061C2.97576 6.3569 3.01224 6.43991 3.07788 6.50102L4.32148 7.66768C4.44967 7.78681 4.65682 7.78933 4.78833 7.67335C5.75994 6.85668 7.02377 6.40419 8.33454 6.40368ZM10.8264 8.9575C10.8283 9.04401 10.7917 9.12741 10.7251 9.18802L8.57335 11.2037C8.51027 11.2629 8.42427 11.2963 8.33454 11.2963C8.2448 11.2963 8.1588 11.2629 8.09573 11.2037L5.94357 9.18802C5.87709 9.12736 5.84051 9.04394 5.84248 8.95743C5.84445 8.87092 5.8848 8.789 5.95398 8.73102C7.3282 7.65213 9.34087 7.65213 10.7151 8.73102C10.7842 8.78905 10.8245 8.87099 10.8264 8.9575Z" fill="black"/>
</svg>
