<svg width="102" height="29" viewBox="0 0 102 29" fill="none" xmlns="http://www.w3.org/2000/svg">
<path d="M12.8789 17.1289H16.3242C16.1367 18.8789 15.457 20.3008 14.2852 21.3945C13.1133 22.4805 11.6055 23.1016 9.76172 23.2578L9.28125 24.2891C9.95312 24.2969 10.4883 24.4688 10.8867 24.8047C11.2852 25.1484 11.4844 25.6172 11.4844 26.2109C11.4844 26.9062 11.2266 27.4414 10.7109 27.8164C10.1953 28.1914 9.48438 28.3828 8.57812 28.3906C7.82031 28.4062 7.26562 28.3516 6.91406 28.2266V26.7969C7.23438 26.8906 7.67188 26.9375 8.22656 26.9375C9.09375 26.9375 9.52734 26.7266 9.52734 26.3047C9.52734 26.0703 9.41797 25.9023 9.19922 25.8008C8.98047 25.707 8.60938 25.6602 8.08594 25.6602H7.34766V24.5117L7.92188 23.2461C5.73438 23.043 4.01172 22.1758 2.75391 20.6445C1.50391 19.1133 0.878906 17.0781 0.878906 14.5391C0.878906 11.8281 1.59766 9.69531 3.03516 8.14062C4.47266 6.57813 6.42188 5.79688 8.88281 5.79688C10.2266 5.79688 11.4453 6.0625 12.5391 6.59375C13.6406 7.125 14.5234 7.875 15.1875 8.84375C15.8516 9.8125 16.2266 10.918 16.3125 12.1602H12.8672C12.7031 11.1211 12.2539 10.2891 11.5195 9.66406C10.793 9.03906 9.91406 8.72656 8.88281 8.72656C7.54688 8.72656 6.48047 9.25 5.68359 10.2969C4.88672 11.3438 4.48828 12.7539 4.48828 14.5273C4.48828 16.332 4.88281 17.7578 5.67188 18.8047C6.46094 19.8438 7.53516 20.3633 8.89453 20.3633C9.94141 20.3633 10.8203 20.0742 11.5312 19.4961C12.2422 18.918 12.6914 18.1289 12.8789 17.1289ZM27.6694 13.952V12.608H30.5974V23H27.6694V21.656C26.8854 22.776 25.8214 23.336 24.4774 23.336C22.9094 23.336 21.6294 22.8 20.6374 21.728C19.6614 20.656 19.1734 19.344 19.1734 17.792C19.1734 16.224 19.6534 14.912 20.6134 13.856C21.5734 12.8 22.8134 12.272 24.3334 12.272C25.8374 12.272 26.9494 12.832 27.6694 13.952ZM27.1414 15.704C26.5974 15.144 25.9094 14.864 25.0774 14.864C24.2454 14.864 23.5574 15.144 23.0134 15.704C22.4694 16.264 22.1974 16.96 22.1974 17.792C22.1974 18.624 22.4694 19.328 23.0134 19.904C23.5574 20.464 24.2454 20.744 25.0774 20.744C25.9094 20.744 26.5974 20.464 27.1414 19.904C27.6854 19.328 27.9574 18.624 27.9574 17.792C27.9574 16.96 27.6854 16.264 27.1414 15.704ZM33.1729 28.496L36.9889 21.44L32.0449 12.608H35.4529L38.6689 18.512L41.5489 12.608H44.8609L36.4849 28.496H33.1729ZM53.5571 19.664L56.2451 20.096C56.1331 20.384 55.9811 20.672 55.7891 20.96C55.6131 21.232 55.3331 21.576 54.9491 21.992C54.5651 22.392 54.0451 22.72 53.3891 22.976C52.7331 23.216 51.9811 23.336 51.1331 23.336C49.5011 23.336 48.1731 22.848 47.1491 21.872C46.0611 20.848 45.5171 19.496 45.5171 17.816C45.5171 16.152 46.0451 14.792 47.1011 13.736C48.0931 12.76 49.3971 12.272 51.0131 12.272C52.7731 12.272 54.1251 12.84 55.0691 13.976C55.9011 14.968 56.3171 16.328 56.3171 18.056V18.296H48.5411C48.5411 19 48.7091 19.584 49.0451 20.048C49.5251 20.704 50.2211 21.032 51.1331 21.032C52.2211 21.032 53.0291 20.576 53.5571 19.664ZM48.6371 16.424H53.5571C53.4451 15.752 53.1491 15.24 52.6691 14.888C52.2051 14.52 51.6771 14.336 51.0851 14.336C50.5091 14.336 49.9811 14.52 49.5011 14.888C49.0371 15.256 48.7491 15.768 48.6371 16.424ZM57.0058 12.608H60.2698L63.0058 18.464L65.7418 12.608H69.0058L63.7738 23H62.2378L57.0058 12.608ZM71.6676 13.736C72.7236 12.76 74.1236 12.272 75.8676 12.272C77.6116 12.272 79.0116 12.76 80.0676 13.736C81.2356 14.792 81.8196 16.152 81.8196 17.816C81.8196 19.464 81.2356 20.816 80.0676 21.872C79.0116 22.848 77.6116 23.336 75.8676 23.336C74.1236 23.336 72.7236 22.848 71.6676 21.872C70.4996 20.816 69.9156 19.464 69.9156 17.816C69.9156 16.152 70.4996 14.792 71.6676 13.736ZM73.7796 19.88C74.3396 20.456 75.0356 20.744 75.8676 20.744C76.6996 20.744 77.3956 20.456 77.9556 19.88C78.5156 19.304 78.7956 18.616 78.7956 17.816C78.7956 17 78.5156 16.304 77.9556 15.728C77.3956 15.152 76.6996 14.864 75.8676 14.864C75.0356 14.864 74.3396 15.152 73.7796 15.728C73.2196 16.304 72.9396 17 72.9396 17.816C72.9396 18.616 73.2196 19.304 73.7796 19.88ZM83.3526 28.496L87.1686 21.44L82.2246 12.608H85.6326L88.8486 18.512L91.7286 12.608H95.0406L86.6646 28.496H83.3526Z" fill="#747D88"/>
</svg>
