<svg width="29" height="28" viewBox="0 0 29 28" fill="none" xmlns="http://www.w3.org/2000/svg">
<path d="M6.35426 17.4125L5.57096 18.0341L6.35426 17.4124L1.47885 11.2692L9.03407 9.16485L8.76575 8.20152L9.03407 9.16485C9.49712 9.03588 9.89823 8.74445 10.164 8.34392L14.5 1.80875L18.836 8.34392C19.1018 8.74445 19.5029 9.03588 19.9659 9.16485L27.5211 11.2692L22.6457 17.4125C22.3469 17.789 22.1937 18.2605 22.2142 18.7407L22.5475 26.5765L15.1983 23.838L14.8492 24.7751L15.1983 23.838C14.7479 23.6702 14.2521 23.6702 13.8017 23.838L14.1508 24.7751L13.8017 23.838L6.45249 26.5765L6.78585 18.7407C6.80628 18.2605 6.65306 17.789 6.35426 17.4125Z" stroke="#747D88" stroke-width="2"/>
</svg>
