<svg width="32" height="28" viewBox="0 0 32 28" fill="none" xmlns="http://www.w3.org/2000/svg">
<path fill-rule="evenodd" clip-rule="evenodd" d="M8.66702 5.02451C8.76963 4.88087 8.8836 4.70503 9.02893 4.46793C9.08196 4.3814 9.22648 4.14133 9.33424 3.9623L9.33458 3.96175L9.33536 3.96045C9.39256 3.86543 9.43923 3.7879 9.45606 3.76018C10.6567 1.78265 11.5295 0.875 13.1033 0.875H20.3451V3.79167H13.1033C12.9777 3.79167 12.5826 4.20251 11.9275 5.28148L11.8221 5.45641L11.822 5.45656C11.7133 5.63715 11.555 5.9002 11.494 5.99971C11.3159 6.29026 11.1679 6.51857 11.0186 6.72766C10.3693 7.63643 9.72044 8.16667 8.75824 8.16667H4.41318C3.61327 8.16667 2.96482 8.81958 2.96482 9.625V22.75C2.96482 23.5554 3.61327 24.2083 4.41318 24.2083H27.5868C28.3867 24.2083 29.0352 23.5554 29.0352 22.75V14H31.9319V22.75C31.9319 25.1662 29.9865 27.125 27.5868 27.125H4.41318C2.01347 27.125 0.0681152 25.1662 0.0681152 22.75V9.625C0.0681152 7.20875 2.01347 5.25 4.41318 5.25H8.49203C8.54025 5.1945 8.59935 5.11923 8.66702 5.02451ZM23.2418 8.16667V5.25H26.1385V2.33333H29.0352V5.25H31.9319V8.16667H29.0352V11.0833H26.1385V8.16667H23.2418ZM16 22.75C12.0005 22.75 8.75824 19.4854 8.75824 15.4583C8.75824 11.4313 12.0005 8.16667 16 8.16667C19.9995 8.16667 23.2418 11.4313 23.2418 15.4583C23.2418 19.4854 19.9995 22.75 16 22.75ZM16 19.8333C18.3997 19.8333 20.3451 17.8746 20.3451 15.4583C20.3451 13.0421 18.3997 11.0833 16 11.0833C13.6003 11.0833 11.6549 13.0421 11.6549 15.4583C11.6549 17.8746 13.6003 19.8333 16 19.8333Z" fill="black"/>
</svg>
